<?xml version="1.0" encoding="UTF-8"?>
<svg width="26px" height="26px" viewBox="0 0 26 26" version="1.1" xmlns="http://www.w3.org/2000/svg" xmlns:xlink="http://www.w3.org/1999/xlink">
    <!-- Generator: Sketch 48.1 (47250) - http://www.bohemiancoding.com/sketch -->
    <title>Admin icon</title>
    <desc>Created with Sketch.</desc>
    <defs></defs>
    <g id="DASHBOARD-MASTER-/-pentajo-Copy-2" stroke="none" stroke-width="1" fill="none" fill-rule="evenodd" transform="translate(-29.000000, -657.000000)">
        <g id="Admin-icon" transform="translate(29.000000, 657.000000)">
            <path d="M0,13 C0,5.82018667 5.82018667,0 13,0 C20.1797267,0 26,5.82018667 26,13 C26,20.1797267 20.1797267,26 13,26 C5.82018667,26 0,20.1797267 0,13" id="Fill-1" fill="#EF5322"></path>
            <path d="M12.9831705,16.2894363 C11.5176524,16.2894363 10.3298663,15.04073 10.3298663,13.4999518 C10.3298663,11.95927 11.5176524,10.7105637 12.9831705,10.7105637 C14.4486886,10.7105637 15.6364747,11.95927 15.6364747,13.4999518 C15.6364747,15.04073 14.4486886,16.2894363 12.9831705,16.2894363 M18.3597069,13.4999518 C18.3597069,13.2186795 18.3336976,12.9449284 18.2959887,12.6750342 L20,11.2338632 L18.3577269,8.26348506 L16.3299949,9.0894633 C15.9204166,8.74715385 15.4622397,8.46800291 14.9679738,8.26232796 L14.6342633,6 L11.3658267,6 L11.0320262,8.26232796 C10.5372204,8.46800291 10.0791335,8.74715385 9.66946516,9.0894633 L7.64182309,8.26348506 L6,11.2338632 L7.70356133,12.6750342 C7.6658524,12.9449284 7.63984315,13.2186795 7.63984315,13.4999518 C7.63984315,13.7806455 7.6658524,14.0549752 7.70356133,14.3249658 L6,15.7659439 L7.64182309,18.7365149 L9.66946516,17.9105367 C10.0791335,18.2527497 10.5372204,18.5319007 11.0320262,18.7375756 L11.3658267,21 L14.6342633,21 L14.9679738,18.7375756 C15.4622397,18.5319007 15.9204166,18.2527497 16.3299949,17.9105367 L18.3577269,18.7365149 L20,15.7659439 L18.2959887,14.3249658 C18.3336976,14.0549752 18.3597069,13.7806455 18.3597069,13.4999518" id="Fill-4" fill="#FFFFFF"></path>
        </g>
    </g>
</svg>