<svg xmlns="http://www.w3.org/2000/svg" xmlns:xlink="http://www.w3.org/1999/xlink" width="935" height="935" viewBox="0 0 935 935">
    <defs>
        <path id="b" d="M731.002 710.42a3.572 3.572 0 0 0-1.64 4.774c32.1 65.8 81.748 121.43 143.578 160.872C936.452 916.584 1010.025 938 1085.703 938c105.853 0 205.373-41.244 280.223-116.136C1440.778 746.973 1482 647.4 1482 541.486c0-98.841-36.563-193.524-102.953-266.61-65.934-72.583-155.725-117.992-252.83-127.857a3.563 3.563 0 0 0-3.908 3.19 3.566 3.566 0 0 0 3.187 3.912c95.35 9.688 183.525 54.279 248.272 125.558 65.193 71.768 101.096 164.746 101.096 261.807 0 104.005-40.48 201.787-113.983 275.33-73.501 73.544-171.229 114.046-275.178 114.046-74.316 0-146.564-21.03-208.93-60.816-60.72-38.734-109.477-93.365-141-157.983a3.562 3.562 0 0 0-4.77-1.643m29.717-169.365c0 .21.028.413.063.612-.217 37.088-30.417 67.196-67.522 67.196-8.07 0-15.962-1.41-23.456-4.188a3.568 3.568 0 0 0-2.477 6.69c8.29 3.075 17.015 4.635 25.933 4.635 41.169 0 74.66-33.523 74.66-74.728 0-.226-.026-.444-.065-.656.24-175.1 142.628-317.479 317.62-317.479 82.724 0 161.057 31.658 220.56 89.147 59.354 57.342 93.745 134.267 96.838 216.607a3.563 3.563 0 1 0 7.123-.269c-3.161-84.191-38.324-162.844-99.009-221.472-60.842-58.778-140.93-91.15-225.512-91.15-179.072 0-324.756 145.82-324.756 325.055m273.249-392.023C869.964 170.586 735.529 293.665 699.443 455.3a399.046 399.046 0 0 0-2.378 11.457A3.569 3.569 0 0 0 700.57 471a3.564 3.564 0 0 0 3.497-2.895 397.933 397.933 0 0 1 2.336-11.245v-.001c35.434-158.723 167.445-279.585 328.494-300.75a3.57 3.57 0 0 0 3.073-4.003c-.258-1.956-2.07-3.337-4.001-3.074m382.167 61.895C1327.879 122.628 1210.536 74 1085.72 74c-118.09 0-230.814 44.18-317.406 124.402-86.112 79.775-138.782 187.92-148.303 304.508a3.565 3.565 0 0 0 3.264 3.847c1.99.18 3.685-1.302 3.846-3.266 9.376-114.802 61.242-221.291 146.04-299.853C858.43 124.642 969.433 81.137 1085.72 81.137c122.909 0 238.462 47.886 325.371 134.836 86.91 86.952 134.773 202.558 134.773 325.527 0 122.967-47.863 238.575-134.773 325.525-86.91 86.95-202.462 134.836-325.371 134.836-93.808 0-184.05-28.06-260.972-81.15-75.146-51.864-132.711-123.935-166.468-208.421a3.564 3.564 0 0 0-4.635-1.989 3.569 3.569 0 0 0-1.988 4.64c34.279 85.795 92.733 158.98 169.042 211.647C898.816 980.502 990.46 1009 1085.721 1009c124.816 0 242.158-48.628 330.415-136.929C1504.395 783.772 1553 666.373 1553 541.5c0-124.875-48.605-242.274-136.864-330.573M641 541.5c0 28.442 23.057 51.5 51.5 51.5s51.5-23.058 51.5-51.5-23.057-51.5-51.5-51.5-51.5 23.058-51.5 51.5m-15.556 9.478a69.664 69.664 0 0 1-.619-9.267v-.654l-.307-.822c-.672-1.802-2.626-2.694-4.363-2-1.578.635-2.434 2.365-2.073 4.03.022 3.244.253 6.5.683 9.684 2.095 15.548 8.82 29.725 19.45 41 .66.7 1.537 1.051 2.411 1.051.851 0 1.703-.332 2.36-.997 1.331-1.352 1.355-3.567.052-4.947-9.616-10.199-15.698-23.02-17.594-37.078m186.211 159.238a3.598 3.598 0 0 0-1.098 4.95C870.592 810.24 973.218 867 1085.086 867c76.706 0 151.165-27.376 209.657-77.09 57.805-49.126 96.944-117.204 110.2-191.69.348-1.949-.942-3.814-2.881-4.162-1.941-.355-3.795.95-4.14 2.898-12.965 72.845-51.243 139.426-107.783 187.477-57.21 48.62-130.032 75.395-205.053 75.395-109.412 0-209.788-55.516-268.508-148.507a3.554 3.554 0 0 0-4.923-1.105M911.098 367.1c96.134-96.135 252.553-96.131 348.686-.001 46.57 46.569 72.216 108.484 72.216 174.344 0 65.856-25.647 127.774-72.216 174.343C1213.217 762.353 1151.3 788 1085.442 788c-65.858.002-127.774-25.645-174.344-72.214-96.13-96.134-96.13-252.552 0-348.686M1084.94 794c67.596 0 131.143-26.323 178.94-74.12 47.796-47.796 74.12-111.345 74.12-178.939 0-67.596-26.324-131.145-74.12-178.94-98.668-98.667-259.211-98.669-357.88 0-98.667 98.668-98.667 259.212 0 357.88C953.797 767.677 1017.348 794 1084.94 794m82.231-170.83c45.105-45.106 45.105-118.235 0-163.341-45.108-45.106-118.237-45.104-163.342 0-45.105 45.106-45.105 118.237 0 163.343 45.105 45.104 118.236 45.104 163.342-.002"/>
        <filter id="a" width="100%" height="100%" x="0%" y="0%" filterUnits="objectBoundingBox">
            <feGaussianBlur in="SourceGraphic"/>
        </filter>
        <filter id="c" width="100.4%" height="100.4%" x="-.2%" y="-.2%" filterUnits="objectBoundingBox">
            <feGaussianBlur in="SourceAlpha" result="shadowBlurInner1" stdDeviation="1.5"/>
            <feOffset dy="1" in="shadowBlurInner1" result="shadowOffsetInner1"/>
            <feComposite in="shadowOffsetInner1" in2="SourceAlpha" k2="-1" k3="1" operator="arithmetic" result="shadowInnerInner1"/>
            <feColorMatrix in="shadowInnerInner1" values="0 0 0 0 0 0 0 0 0 0 0 0 0 0 0 0 0 0 0.384086277 0"/>
        </filter>
    </defs>
    <g fill="none" fill-rule="evenodd" filter="url(#a)" opacity=".522" transform="translate(-618 -74)">
        <use fill="#FFF" xlink:href="#b"/>
        <use fill="#000" filter="url(#c)" xlink:href="#b"/>
    </g>
</svg>
