<?xml version="1.0" encoding="UTF-8"?>
<svg width="26px" height="26px" viewBox="0 0 26 26" version="1.1" xmlns="http://www.w3.org/2000/svg" xmlns:xlink="http://www.w3.org/1999/xlink">
    <!-- Generator: Sketch 48.1 (47250) - http://www.bohemiancoding.com/sketch -->
    <title>dashboard icon</title>
    <desc>Created with Sketch.</desc>
    <defs>
        <polygon id="path-1" points="0 8.66666666e-06 25.9999827 8.66666666e-06 25.9999827 26 0 26"></polygon>
        <polygon id="path-3" points="0 26 26 26 26 0 0 0"></polygon>
    </defs>
    <g id="DASHBOARD-MASTER-/-pentajo-Copy-2" stroke="none" stroke-width="1" fill="none" fill-rule="evenodd" transform="translate(-29.000000, -203.000000)">
        <g id="NAV">
            <g id="MENU" transform="translate(0.000000, 203.000000)">
                <g id="DASHBOARD">
                    <g id="dashboard-icon" transform="translate(29.000000, 0.000000)">
                        <g id="Group-3">
                            <mask id="mask-2" fill="white">
                                <use xlink:href="#path-1"></use>
                            </mask>
                            <g id="Clip-2"></g>
                            <path d="M-1.73333333e-05,13.0000087 C-1.73333333e-05,5.820282 5.820256,8.66666666e-06 12.9999827,8.66666666e-06 C20.1797093,8.66666666e-06 25.9999827,5.820282 25.9999827,13.0000087 C25.9999827,20.1797353 20.1797093,26.0000087 12.9999827,26.0000087 C5.820256,26.0000087 -1.73333333e-05,20.1797353 -1.73333333e-05,13.0000087" id="Fill-1" fill="#EF5322" mask="url(#mask-2)"></path>
                        </g>
                        <mask id="mask-4" fill="white">
                            <use xlink:href="#path-3"></use>
                        </mask>
                        <g id="Clip-5"></g>
                        <path d="M8.76702667,17.7944 L10.1318533,17.7944 L10.1318533,9.86682667 L8.76702667,9.86682667 L8.76702667,17.7944 Z M11.46574,17.7944 L12.8305667,17.7944 L12.8305667,8.85482 L11.46574,8.85482 L11.46574,17.7944 Z M14.8303133,17.7944 L21.9480733,17.7944 L21.9480733,16.4295733 L14.8303133,16.4295733 L14.8303133,17.7944 Z M14.8303133,15.36366 L21.9480733,15.36366 L21.9480733,13.9988333 L14.8303133,13.9988333 L14.8303133,15.36366 Z M18.3859,10.2854267 C18.79514,10.2854267 19.1272467,10.6183133 19.1272467,11.02868 C19.1272467,11.43948 18.79514,11.7719333 18.3859,11.7719333 C17.97666,11.7719333 17.6445533,11.43948 17.6445533,11.02868 C17.6445533,10.6183133 17.97666,10.2854267 18.3859,10.2854267 Z M18.3863333,13.1561733 C19.5677733,13.1561733 20.5289067,12.1914 20.5289067,11.0054533 C20.5289067,9.81959333 19.5677733,8.85482 18.3863333,8.85482 C17.20446,8.85482 16.24298,9.81959333 16.24298,11.0054533 C16.24298,12.1914 17.20446,13.1561733 18.3863333,13.1561733 Z M6.06822667,17.7944 L7.43305333,17.7944 L7.43305333,10.8788333 L6.06822667,10.8788333 L6.06822667,17.7944 Z M3.3696,17.7944 L4.73442667,17.7944 L4.73442667,11.8909267 L3.3696,11.8909267 L3.3696,17.7944 Z" id="Fill-4" fill="#FFFFFF" mask="url(#mask-4)"></path>
                    </g>
                </g>
            </g>
        </g>
    </g>
</svg>
