<svg xmlns="http://www.w3.org/2000/svg" width="17" height="20" viewBox="0 0 17 20">
    <path fill="#F05323" fill-rule="nonzero" d="M9.327.352l4.058 4.078c1.142 1.126-.57 2.816-1.712 1.69l-1.39-1.376c-.315-.314-.572-.21-.572.232v5.48c0 .654-.542 1.191-1.21 1.191-.668 0-1.212-.533-1.212-1.192v-5.48c0-.438-.256-.545-.573-.231L5.327 6.12c-1.141 1.126-2.854-.564-1.713-1.69L7.631.358A1.19 1.19 0 0 1 9.327.352zm5.244 16.074v-2.389c0-.66.544-1.195 1.215-1.195.67 0 1.214.535 1.214 1.195v3.587c0 .88-.73 1.592-1.62 1.592H1.62C.725 19.216 0 18.5 0 17.624v-3.587c0-.66.544-1.195 1.214-1.195.67 0 1.215.535 1.215 1.195v2.39c0 .224.18.399.404.399h11.334a.402.402 0 0 0 .404-.4z"/>
</svg>
