<svg xmlns="http://www.w3.org/2000/svg" width="35" height="35" viewBox="0 0 35 35">
    <path fill="#FFF" fill-rule="evenodd" d="M9.18 4.59a4.59 4.59 0 1 0-9.18 0 4.59 4.59 0 0 0 9.18 0m16.453 14.575c-.136.362-.32.703-.552 1.023-.232.32-.498.63-.798.926-.3.296-.617.598-.95.905-.192.177-.35.354-.476.531a2.616 2.616 0 0 0-.47 1.181c-.031.222-.05.466-.057.732h-2.618c0-.464.026-.878.077-1.243.051-.364.138-.7.26-1.007a3.69 3.69 0 0 1 .481-.854c.198-.262.443-.527.737-.792.231-.205.446-.404.644-.599.198-.194.368-.388.511-.583.143-.194.254-.399.333-.613.078-.215.117-.445.117-.69 0-.58-.135-1.013-.404-1.3-.27-.286-.666-.429-1.191-.429-.212 0-.418.033-.619.097-.201.065-.38.17-.537.312a1.567 1.567 0 0 0-.378.547 2.116 2.116 0 0 0-.154.793h-2.965c.007-.716.133-1.335.378-1.856.246-.522.576-.953.992-1.294.416-.34.905-.594 1.468-.762a6.35 6.35 0 0 1 1.815-.25c.716 0 1.356.089 1.922.266.566.177 1.043.434 1.432.772.389.337.687.757.895 1.258.208.5.312 1.072.312 1.713 0 .45-.069.855-.205 1.216m-3.022 9.05a1.458 1.458 0 0 1-.854.824 1.903 1.903 0 0 1-.685.118c-.252 0-.48-.04-.685-.118a1.455 1.455 0 0 1-.854-.823 1.595 1.595 0 0 1-.117-.614c0-.225.039-.433.117-.624.078-.19.19-.356.333-.496.143-.14.317-.25.521-.332a1.83 1.83 0 0 1 .685-.123c.252 0 .48.041.685.123.205.082.379.193.522.332.143.14.254.306.332.496.079.191.118.4.118.624a1.6 1.6 0 0 1-.118.614m-1.38-20.754c-7.605 0-13.77 6.164-13.77 13.769C7.462 28.835 13.627 35 21.232 35 28.835 35 35 28.835 35 21.23c0-7.604-6.165-13.768-13.77-13.768"/>
</svg>
