<svg xmlns="http://www.w3.org/2000/svg" width="26" height="31" viewBox="0 0 26 31">
    <path fill="#666" fill-rule="evenodd" d="M13 20.02c-1.29 0-2.34-1.05-2.34-2.34 0-1.29 1.05-2.34 2.34-2.34 1.29 0 2.34 1.05 2.34 2.34 0 1.29-1.05 2.34-2.34 2.34zm0-5.72a3.378 3.378 0 1 0-.516 6.717c0 .014-.004.028-.004.043v1.82a.52.52 0 0 0 1.04 0v-1.82c0-.015-.003-.029-.004-.043A3.378 3.378 0 0 0 13 14.3zm0 15.34c-6.595 0-11.96-5.365-11.96-11.96C1.04 11.085 6.405 5.72 13 5.72c6.595 0 11.96 5.365 11.96 11.96 0 6.595-5.365 11.96-11.96 11.96zM9.62 4.42A3.384 3.384 0 0 1 13 1.04a3.384 3.384 0 0 1 3.38 3.38v.706a13.018 13.018 0 0 0-6.76 0V4.42zm7.8 1.032V4.42A4.425 4.425 0 0 0 13 0a4.425 4.425 0 0 0-4.42 4.42v1.032C3.577 7.26 0 12.052 0 17.68c0 7.18 5.82 13 13 13s13-5.82 13-13c0-5.628-3.577-10.419-8.58-12.228z"/>
</svg>
