<svg xmlns="http://www.w3.org/2000/svg" width="26" height="26" viewBox="0 0 26 26">
    <path fill="#666" fill-rule="evenodd" d="M21.877 21.006A13.418 13.418 0 0 0 13 17.68a13.418 13.418 0 0 0-8.877 3.326A11.913 11.913 0 0 1 1.04 13C1.04 6.405 6.405 1.04 13 1.04c6.595 0 11.96 5.365 11.96 11.96 0 3.077-1.168 5.885-3.083 8.006M13 24.96a11.914 11.914 0 0 1-8.144-3.212A12.386 12.386 0 0 1 13 18.72c3.023 0 5.88 1.07 8.144 3.028-2.137 1.99-5 3.212-8.144 3.212M13 0C5.82 0 0 5.82 0 13s5.82 13 13 13 13-5.82 13-13S20.18 0 13 0m0 15.6a2.603 2.603 0 0 1-2.6-2.6c0-1.434 1.167-2.6 2.6-2.6 1.434 0 2.6 1.166 2.6 2.6 0 1.434-1.166 2.6-2.6 2.6m0-6.24a3.64 3.64 0 1 0 0 7.28 3.64 3.64 0 0 0 0-7.28"/>
</svg>
