<svg xmlns="http://www.w3.org/2000/svg" width="125" height="50" viewBox="0 0 125 50">
    <path fill="#FFF" fill-rule="nonzero" d="M24.523 0C10.98 0 0 11.012 0 24.597 0 38.18 10.98 49.194 24.523 49.194c13.544 0 24.524-11.013 24.524-24.597C49.047 11.012 38.065 0 24.523 0zm23.123 24.597c-.006 11.032-7.757 20.534-18.537 22.725-10.78 2.19-21.608-3.538-25.893-13.699-4.793-11.761.74-25.201 12.409-30.146 11.67-4.944 25.133.447 30.199 12.093a23.104 23.104 0 0 1 1.822 9.027zM14.139 12.873a3.146 3.146 0 0 0-4.46 0 3.17 3.17 0 0 0 0 4.473 3.146 3.146 0 0 0 4.46 0 3.167 3.167 0 0 0 0-4.473zm10.384 2.236c-5.224 0-9.459 4.248-9.459 9.488 0 5.24 4.235 9.487 9.46 9.487 5.224 0 9.458-4.248 9.458-9.487 0-5.24-4.234-9.488-9.459-9.488zm78.274.563l-.09 2.337a.024.024 0 0 1-.044.012 6.524 6.524 0 0 0-2.26-2.12c-.93-.523-2.045-.784-3.344-.784-1.098 0-2.08.22-2.95.657a6.25 6.25 0 0 0-2.209 1.871c-.604.81-1.066 1.784-1.385 2.924-.32 1.14-.479 2.42-.479 3.836v.351c0 1.371.16 2.624.479 3.759.319 1.134.78 2.11 1.385 2.924a6.489 6.489 0 0 0 2.201 1.904c.863.455 1.837.683 2.924.683 1.288 0 2.397-.239 3.327-.716a6.381 6.381 0 0 0 2.259-1.922.024.024 0 0 1 .043.014v2.051c0 .91-.12 1.722-.362 2.435a5.033 5.033 0 0 1-1.05 1.82 4.52 4.52 0 0 1-1.69 1.146c-.666.264-1.43.396-2.293.397a5.92 5.92 0 0 1-2.722-.633c-.683-.347-1.335-.86-1.957-1.538a.56.56 0 0 0-.82 0l-.543.585a.282.282 0 0 0-.018.363c.332.442.72.839 1.153 1.18a8.017 8.017 0 0 0 1.57.971 8.327 8.327 0 0 0 3.471.773c1.109 0 2.112-.174 3.008-.522a6.368 6.368 0 0 0 2.293-1.5 6.722 6.722 0 0 0 1.472-2.384c.347-.937.52-1.996.52-3.177V15.41h-1.67a.28.28 0 0 0-.222.264l.003-.002zm-.14 12.24a3.81 3.81 0 0 1-.771 2.308l-.037.047a5.078 5.078 0 0 1-1.109 1.055c-.45.31-.947.547-1.471.702a6.436 6.436 0 0 1-1.874.253c-.919 0-1.711-.19-2.377-.572a4.798 4.798 0 0 1-1.655-1.584c-.437-.675-.762-1.47-.975-2.385a13.118 13.118 0 0 1-.32-2.975v-.351c-.006-.998.101-1.993.32-2.967.213-.92.538-1.718.975-2.392a4.851 4.851 0 0 1 1.663-1.593c.672-.387 1.473-.581 2.403-.581.74 0 1.389.098 1.949.295.53.18 1.028.448 1.471.792a5.214 5.214 0 0 1 1.216 1.361 3.81 3.81 0 0 1 .59 2.045l.001 6.542zm21.898-7.41c-.296-1.154-.746-2.147-1.349-2.98a6.381 6.381 0 0 0-2.263-1.954c-.905-.468-1.96-.702-3.167-.702-.981 0-1.838.174-2.57.522a5.748 5.748 0 0 0-1.922 1.481V8.203a1.119 1.119 0 0 0-1.28-1.113l-3.463.501a.21.21 0 0 0-.192.211v25.16c0 .62.502 1.124 1.12 1.124h2.811a.561.561 0 0 0 .56-.509l.174-1.804a6.133 6.133 0 0 0 2.023 1.705c.78.405 1.705.608 2.776.608 1.206 0 2.26-.232 3.159-.694a6.241 6.241 0 0 0 2.246-1.944c.598-.833 1.044-1.827 1.34-2.98.296-1.154.443-2.427.441-3.82v-.36a15.213 15.213 0 0 0-.444-3.786zm-4.491 4.146c.004.731-.047 1.461-.154 2.184a5.104 5.104 0 0 1-.554 1.722 3.018 3.018 0 0 1-1.077 1.13c-.45.275-1.022.412-1.716.412-.854 0-1.543-.171-2.067-.514a2.673 2.673 0 0 1-1.212-2.254v-5.68a2.66 2.66 0 0 1 1.212-2.252c.524-.337 1.201-.506 2.032-.506.706 0 1.287.143 1.742.428.457.287.83.688 1.085 1.165.282.537.47 1.12.555 1.722.105.688.156 1.384.153 2.08v.363zM85.756 17.48a6.344 6.344 0 0 0-2.26-1.736c-.896-.416-1.921-.623-3.075-.623a6.905 6.905 0 0 0-2.966.657 7.648 7.648 0 0 0-2.478 1.862c-.717.804-1.285 1.776-1.705 2.916-.42 1.14-.63 2.413-.63 3.817v.725c0 1.303.2 2.5.604 3.59a8.526 8.526 0 0 0 1.688 2.823 7.67 7.67 0 0 0 2.58 1.851 7.967 7.967 0 0 0 3.277.666 8.985 8.985 0 0 0 2.217-.253 7.447 7.447 0 0 0 1.781-.69 6.307 6.307 0 0 0 1.386-1.03c.322-.316.619-.657.888-1.02a.282.282 0 0 0-.055-.392l-.615-.47a.56.56 0 0 0-.763.08c-.583.66-1.219 1.154-1.908 1.482-.823.394-1.773.59-2.848.59a5.645 5.645 0 0 1-2.537-.562 6.04 6.04 0 0 1-1.964-1.543 7.104 7.104 0 0 1-1.277-2.3 8.64 8.64 0 0 1-.454-2.824v-.225c0-.09.072-.162.161-.162h12.373a.439.439 0 0 0 .438-.44v-.791a11.395 11.395 0 0 0-.471-3.354 7.634 7.634 0 0 0-1.387-2.644zm-.14 5.423c0 .049-.04.088-.088.088H74.892a.162.162 0 0 1-.16-.184 9.265 9.265 0 0 1 .623-2.335 6.616 6.616 0 0 1 1.227-1.947 5.27 5.27 0 0 1 1.722-1.248 5.102 5.102 0 0 1 2.117-.437c.852 0 1.596.165 2.235.497.624.32 1.171.77 1.604 1.323.44.567.772 1.21.981 1.897.225.718.35 1.464.37 2.217l.004.13zm-17.444-5.256a6.106 6.106 0 0 0-2.193-1.87c-.869-.439-1.857-.658-2.966-.658-1.3 0-2.421.258-3.364.773a6.664 6.664 0 0 0-2.334 2.143l-.078-2.663a.563.563 0 0 0-.683-.532l-.981.222a.28.28 0 0 0-.219.274V40.01a.563.563 0 0 0 .676.55l1.101-.232a.28.28 0 0 0 .223-.274v-8.654a6.443 6.443 0 0 0 2.343 1.93c.946.466 2.07.7 3.369.702 1.098 0 2.075-.227 2.932-.682a6.36 6.36 0 0 0 2.176-1.904c.594-.815 1.045-1.79 1.353-2.925.308-1.134.461-2.387.461-3.758v-.351c0-1.416-.153-2.694-.461-3.835-.308-1.14-.76-2.116-1.355-2.929zm-.202 7.112a12.912 12.912 0 0 1-.328 2.981c-.219.922-.55 1.722-.992 2.402a4.9 4.9 0 0 1-1.671 1.604c-.673.387-1.468.581-2.386.581a6.485 6.485 0 0 1-1.845-.245 5.425 5.425 0 0 1-1.471-.674 5.008 5.008 0 0 1-1.126-1.02 6.054 6.054 0 0 1-.524-.75 2.02 2.02 0 0 1-.277-1.024v-7.698c0-.409.1-.811.293-1.171.132-.244.279-.48.439-.707.3-.424.662-.8 1.076-1.113a5.144 5.144 0 0 1 1.47-.766 5.98 5.98 0 0 1 1.933-.287c.919 0 1.72.194 2.403.581a4.878 4.878 0 0 1 1.689 1.593c.442.674.772 1.471.991 2.393.224.972.334 1.968.328 2.966l-.002.354z"/>
</svg>
