<svg xmlns="http://www.w3.org/2000/svg" width="120" height="44" viewBox="0 0 120 44">
    <path fill="#FFF" fill-rule="evenodd" d="M95.506 28.295a1.74 1.74 0 0 1-.958 1.569l-.012.006c-.4.193-.892.29-1.477.29-.493 0-.924-.112-1.293-.336a2.708 2.708 0 0 1-.916-.933 4.558 4.558 0 0 1-.539-1.4 8.055 8.055 0 0 1-.177-1.735v-.321c0-.643.064-1.236.193-1.782.128-.545.315-1.02.561-1.422a2.77 2.77 0 0 1 .924-.94c.37-.225.795-.337 1.277-.337.575 0 1.06.097 1.455.29a1.74 1.74 0 0 1 .962 1.569v5.482zm4.016-10.723l-2.748-.466a.722.722 0 0 0-.84.633l-.067.625a.16.16 0 0 1-.274.094 4.839 4.839 0 0 0-1.433-1.021c-.653-.306-1.45-.46-2.394-.46-1.057 0-2.009.205-2.855.613a6.1 6.1 0 0 0-2.156 1.728c-.59.744-1.04 1.636-1.354 2.676-.313 1.04-.47 2.187-.47 3.44v.322c0 1.203.157 2.317.47 3.341.313 1.025.762 1.91 1.347 2.654a6.27 6.27 0 0 0 2.14 1.75c.84.423 1.79.635 2.847.635.81 0 1.524-.143 2.14-.428a5.008 5.008 0 0 0 1.36-.93.16.16 0 0 1 .271.115v.264c0 1.08-.293 1.914-.877 2.5-.585.587-1.442.88-2.57.88-.863 0-1.612-.163-2.248-.49a5.935 5.935 0 0 1-.518-.298 1.452 1.452 0 0 0-1.968.368l-.911 1.272a.715.715 0 0 0 .092.939c.237.222.5.425.788.61a8.44 8.44 0 0 0 1.532.772c.544.21 1.11.367 1.7.474.59.107 1.163.161 1.717.161 1.262 0 2.414-.158 3.455-.474 1.042-.316 1.935-.778 2.679-1.384a6.227 6.227 0 0 0 1.732-2.24c.41-.887.615-1.907.615-3.059v-14.2c0-.7-.508-1.299-1.202-1.416zm-21.227 6.22a.16.16 0 0 1-.16.16h-4.886a.16.16 0 0 1-.158-.188c.06-.358.142-.693.248-1.006.122-.367.289-.682.5-.948.21-.265.474-.474.792-.627.318-.153.698-.23 1.14-.23.82 0 1.451.228 1.893.681.44.454.65 1.094.63 1.92v.238zm3.07-4.627a6.511 6.511 0 0 0-2.386-1.621c-.938-.377-1.998-.566-3.178-.566-1.334 0-2.501.22-3.502.657-1 .439-1.837 1.04-2.509 1.805-.672.765-1.175 1.67-1.508 2.714-.334 1.046-.5 2.17-.5 3.372v.581c0 1.092.192 2.121.577 3.09.385.968.94 1.82 1.67 2.554.728.734 1.626 1.315 2.694 1.743 1.067.428 2.278.642 3.632.642a9.379 9.379 0 0 0 4.094-.91 7.131 7.131 0 0 0 1.455-.925c.224-.187.426-.376.607-.57a.717.717 0 0 0 .027-.958l-1.002-1.177c-.477-.56-1.31-.688-1.916-.27a4.012 4.012 0 0 1-.826.436 5.712 5.712 0 0 1-2.085.398c-.996 0-1.806-.265-2.431-.795-.582-.492-.973-1.155-1.174-1.989a.16.16 0 0 1 .157-.198h8.668a1.44 1.44 0 0 0 1.445-1.436v-.66c0-1.243-.172-2.364-.516-3.363-.344-1-.841-1.85-1.493-2.554zm37.274 6.53c0 1.203-.124 2.312-.368 3.296-.238.96-.606 1.79-1.094 2.466a5.029 5.029 0 0 1-1.813 1.553c-.724.369-1.604.556-2.616.556-.813 0-1.517-.155-2.092-.46a4.853 4.853 0 0 1-1.548-1.322.576.576 0 0 0-1.023.277l-.189 1.478a.147.147 0 0 1-.122.126l-2.39.414a.873.873 0 0 1-1.02-.853V11.892c0-.073.053-.135.126-.146l2.909-.447a.88.88 0 0 1 .7.198.862.862 0 0 1 .305.657v6.46c0 .237.147.45.37.533a.576.576 0 0 0 .634-.156 4.358 4.358 0 0 1 1.428-1.068c.536-.249 1.17-.375 1.881-.375 1.021 0 1.91.19 2.639.563.73.375 1.342.904 1.819 1.574.489.688.858 1.518 1.096 2.47.244.973.368 2.056.368 3.218v.322zm.746-3.816c-.273-1.09-.702-2.049-1.274-2.852a6.162 6.162 0 0 0-2.229-1.929c-.894-.458-1.959-.69-3.165-.69-.88 0-1.677.162-2.367.482a5.43 5.43 0 0 0-.799.456v-5.192c0-.586-.257-1.141-.705-1.523a2.027 2.027 0 0 0-1.623-.459l-2.909.447a1.284 1.284 0 0 0-1.098 1.273v21.334c0 .594.263 1.153.72 1.536a2.022 2.022 0 0 0 1.646.44l2.389-.413a1.285 1.285 0 0 0 1.064-1.107l.036-.284c.324.277.673.516 1.044.713.743.395 1.63.595 2.633.595 1.196 0 2.252-.23 3.14-.682a6.164 6.164 0 0 0 2.221-1.903c.574-.794 1.003-1.756 1.276-2.857.267-1.073.402-2.274.402-3.57v-.32c0-1.255-.135-2.431-.402-3.495zm-5.948 3.816c0 .638-.028 1.23-.082 1.762-.05.486-.153.902-.305 1.236a1.535 1.535 0 0 1-.57.676c-.241.157-.591.236-1.04.236-.533 0-.957-.088-1.263-.262l-.008-.004a1.263 1.263 0 0 1-.618-1.1v-5.343a1.25 1.25 0 0 1 .632-1.106c.304-.176.716-.266 1.226-.266.422 0 .757.084.996.25.257.177.453.416.6.73.164.345.276.76.336 1.235.063.507.096 1.057.096 1.634v.322zm.608-3.675a2.931 2.931 0 0 0-.984-1.182c-.436-.301-.991-.454-1.652-.454-.716 0-1.324.142-1.805.422a2.384 2.384 0 0 0-1.2 2.09v5.343c0 .865.455 1.664 1.19 2.086l.014.009c.48.273 1.097.411 1.832.411.675 0 1.236-.141 1.667-.42.43-.278.762-.668.988-1.16.204-.448.339-.984.401-1.593.059-.57.088-1.2.088-1.877v-.322c0-.623-.035-1.22-.104-1.775a5.225 5.225 0 0 0-.435-1.578zm-53.14 3.66c0 .621-.042 1.205-.123 1.75a4.805 4.805 0 0 1-.424 1.423 2.56 2.56 0 0 1-.785.955c-.323.235-.731.352-1.223.352-.647 0-1.17-.12-1.57-.36a2.358 2.358 0 0 1-.344-.249 1.751 1.751 0 0 1-.58-1.322v-5.385c0-.64.334-1.242.896-1.555l.012-.006c.4-.22.918-.33 1.554-.33.472 0 .875.11 1.209.33.333.219.6.522.8.91.2.387.347.851.439 1.391a10.5 10.5 0 0 1 .138 1.774v.321zm3.524-6.393a5.598 5.598 0 0 0-2.032-1.705c-.81-.403-1.744-.604-2.801-.604-.872 0-1.627.16-2.262.482a5.072 5.072 0 0 0-1.663 1.353l-.089-1.06a.722.722 0 0 0-.838-.648l-2.866.472a1.439 1.439 0 0 0-1.21 1.416v21.278c0 .44.396.777.834.71l3.13-.482a1.439 1.439 0 0 0 1.224-1.419v-6.212c0-.14.17-.213.272-.114.397.386.845.7 1.344.939.615.295 1.334.443 2.155.443 1.047 0 1.973-.214 2.778-.642a5.91 5.91 0 0 0 2.032-1.782c.549-.76.962-1.654 1.24-2.684.276-1.03.415-2.146.415-3.349v-.32c0-1.255-.142-2.396-.424-3.426-.282-1.03-.695-1.912-1.239-2.646zM11.657 5.791C11.657 2.593 9.047 0 5.83 0 2.609 0 0 2.593 0 5.791c0 3.198 2.61 5.79 5.829 5.79s5.828-2.592 5.828-5.79zM26.41 8.866c-9.658 0-17.486 7.778-17.486 17.373 0 9.595 7.828 17.373 17.486 17.373 9.657 0 17.486-7.778 17.486-17.373 0-9.595-7.83-17.373-17.486-17.373z"/>
</svg>
