<svg xmlns="http://www.w3.org/2000/svg" width="17" height="21" viewBox="0 0 17 21">
    <path fill="#F05323" fill-rule="evenodd" d="M7.404 9.708a6.166 6.166 0 0 1 6.159 6.159h1.015c0-3.956-3.218-7.175-7.174-7.175-3.956 0-7.175 3.219-7.175 7.175v3.006h11.258v-1.015H1.244v-1.991a6.166 6.166 0 0 1 6.16-6.16m6.66 9.744a.842.842 0 0 1-.85-.834c0-.46.381-.834.85-.834.47 0 .851.374.851.834 0 .461-.38.834-.85.834m1.723-.834c0-.084-.009-.166-.02-.246l.545-.431-.526-.888-.65.246a1.724 1.724 0 0 0-.436-.247l-.107-.676h-1.047l-.107.676a1.73 1.73 0 0 0-.437.247l-.65-.246-.525.888.546.43c-.012.081-.02.163-.02.247 0 .084.008.166.02.247l-.546.43.526.889.65-.247c.13.103.277.186.436.247l.107.677h1.047l.107-.677c.158-.061.305-.144.436-.247l.65.247.526-.888-.546-.431c.012-.081.02-.163.02-.247M7.21 1.016a3.151 3.151 0 0 1 3.148 3.148A3.151 3.151 0 0 1 7.21 7.312 3.151 3.151 0 0 1 4.06 4.164 3.151 3.151 0 0 1 7.21 1.016m0 7.311a4.168 4.168 0 0 0 4.163-4.163A4.168 4.168 0 0 0 7.21 0a4.168 4.168 0 0 0-4.164 4.164A4.169 4.169 0 0 0 7.21 8.327"/>
</svg>
