<svg xmlns="http://www.w3.org/2000/svg" width="100" height="35" viewBox="0 0 100 35">
    <path fill="#F05323" fill-rule="evenodd" d="M29.999 17.205c0-4.023 3.272-7.295 7.295-7.295 1.113 0 2.188.247 3.163.717l-9.738 9.737a7.25 7.25 0 0 1-.72-3.16zm7.295 7.294a7.251 7.251 0 0 1-3.16-.72l13.44-13.44-1.708-1.707a12.044 12.044 0 0 0-8.572-3.551c-6.686 0-12.124 5.438-12.124 12.124 0 6.685 5.438 12.124 12.124 12.124 3.238 0 6.283-1.262 8.572-3.552l-3.414-3.414a7.247 7.247 0 0 1-5.158 2.136zm44.41 0c-4.022 0-7.294-3.272-7.294-7.294 0-4.023 3.272-7.295 7.295-7.295 4.022 0 7.295 3.272 7.295 7.295 0 4.022-3.273 7.294-7.295 7.294zm0-19.418a12.06 12.06 0 0 0-7.294 2.447V0h-4.83v17.205c0 6.685 5.44 12.124 12.125 12.124s12.124-5.44 12.124-12.124c0-6.686-5.439-12.124-12.124-12.124zM57.92 19.237l4.544 4.545c-.974.47-2.05.717-3.163.717-4.022 0-7.294-3.272-7.294-7.294 0-4.023 3.272-7.295 7.294-7.295 1.95 0 3.78.758 5.159 2.136l3.414-3.414A12.044 12.044 0 0 0 59.3 5.08c-6.685 0-12.123 5.438-12.123 12.124 0 6.685 5.438 12.124 12.123 12.124 3.239 0 6.283-1.262 8.573-3.551l1.708-1.708-8.248-8.247-3.414 3.414zM96.005.941a3.995 3.995 0 1 0 0 7.989 3.995 3.995 0 0 0 0-7.99zM12.124 24.499c-4.022 0-7.295-3.272-7.295-7.294 0-4.023 3.273-7.295 7.295-7.295s7.295 3.272 7.295 7.295c0 4.022-3.273 7.294-7.295 7.294zm0-19.418C5.439 5.08 0 10.519 0 17.205v17.204h4.829v-7.528a12.06 12.06 0 0 0 7.295 2.448c6.685 0 12.124-5.44 12.124-12.124 0-6.686-5.439-12.124-12.124-12.124z"/>
</svg>
