<svg xmlns="http://www.w3.org/2000/svg" width="125" height="44" viewBox="0 0 125 44">
    <path fill="#FFF" fill-rule="evenodd" d="M37.498 21.506c0-5.028 4.091-9.119 9.12-9.119 1.39 0 2.735.31 3.953.897L38.399 25.455a9.062 9.062 0 0 1-.9-3.95zm9.12 9.118a9.064 9.064 0 0 1-3.95-.9l16.8-16.8-2.135-2.134a15.055 15.055 0 0 0-10.716-4.44c-8.357 0-15.155 6.8-15.155 15.156 0 8.356 6.798 15.155 15.155 15.155 4.048 0 7.854-1.577 10.716-4.44l-4.268-4.267a9.059 9.059 0 0 1-6.448 2.67zm55.513 0c-5.028 0-9.119-4.09-9.119-9.118 0-5.028 4.09-9.119 9.119-9.119 5.028 0 9.118 4.09 9.118 9.119 0 5.028-4.09 9.118-9.118 9.118zm0-24.273c-3.42 0-6.58 1.14-9.119 3.06V0h-6.036v21.506c0 8.356 6.798 15.155 15.155 15.155 8.356 0 15.155-6.799 15.155-15.155 0-8.357-6.799-15.155-15.155-15.155zM72.398 24.047l5.681 5.68a9.08 9.08 0 0 1-3.953.897c-5.028 0-9.119-4.09-9.119-9.118 0-5.028 4.09-9.119 9.119-9.119 2.435 0 4.725.949 6.447 2.67l4.269-4.267a15.055 15.055 0 0 0-10.716-4.44c-8.357 0-15.155 6.8-15.155 15.156 0 8.356 6.798 15.155 15.155 15.155 4.047 0 7.853-1.577 10.716-4.44l2.134-2.133-10.31-10.31-4.268 4.269zm47.609-22.871a4.993 4.993 0 1 0 0 9.987 4.993 4.993 0 0 0 0-9.987zM15.155 30.624c-5.028 0-9.119-4.09-9.119-9.118 0-5.028 4.091-9.119 9.119-9.119s9.119 4.09 9.119 9.119c0 5.028-4.091 9.118-9.12 9.118zm0-24.273C6.799 6.35 0 13.149 0 21.506v21.506h6.036v-9.41a15.074 15.074 0 0 0 9.119 3.059c8.356 0 15.155-6.799 15.155-15.155 0-8.357-6.799-15.155-15.155-15.155z"/>
</svg>
