<svg id="Layer_1" data-name="Layer 1" xmlns="http://www.w3.org/2000/svg" viewBox="0 0 80 80"><defs><style>.cls-1{fill:#4d4d4d;}.cls-2{fill:#fff;}</style></defs><title>Artboard 5 copy</title><circle class="cls-1" cx="40" cy="40" r="40"/><path class="cls-2" d="M56.1,63.91h-2V54.29c0-4.41-2.17-6.85-4.21-8.79L49.42,45a15.91,15.91,0,0,1-2-2.13,4.71,4.71,0,0,1,0-5.78,15.91,15.91,0,0,1,2-2.13l.51-.49c2-1.94,4.21-4.38,4.21-8.77V16.09h2a1,1,0,0,0,.78-.32,1.08,1.08,0,0,0,0-1.55,1.18,1.18,0,0,0-.77-.32H23.79a1.12,1.12,0,0,0-.73.4,1.14,1.14,0,0,0-.26.8,1.12,1.12,0,0,0,1.15,1h2v9.62c0,4.39,2.17,6.83,4.21,8.77l.51.49a15.91,15.91,0,0,1,2,2.13,4.71,4.71,0,0,1,0,5.78,15.91,15.91,0,0,1-2,2.13l-.51.49c-2,1.94-4.21,4.38-4.21,8.79v9.62H23.79a1.08,1.08,0,0,0-.73.4,1.14,1.14,0,0,0-.26.8,1.12,1.12,0,0,0,1.07,1H56.09a1.09,1.09,0,0,0,.78-1.87A1.05,1.05,0,0,0,56.1,63.91Zm-4.15,0H28.1V54.29c0-3.55,1.53-5.29,3.53-7.19l.45-.43a19.66,19.66,0,0,0,2.34-2.48,6.91,6.91,0,0,0,0-8.39,18.58,18.58,0,0,0-2.27-2.41l-.52-.49c-2-1.9-3.53-3.64-3.53-7.19V16.09H52v9.62c0,3.55-1.53,5.29-3.53,7.19l-.52.49a18.58,18.58,0,0,0-2.27,2.41,6.91,6.91,0,0,0,0,8.39A19.66,19.66,0,0,0,48,46.67l.45.43c2,1.9,3.53,3.64,3.53,7.19Z"/></svg>