<svg xmlns="http://www.w3.org/2000/svg" width="26" height="26" viewBox="0 0 26 26">
    <g fill="none" fill-rule="evenodd">
        <path fill="#F05323" d="M0 13C0 5.82 5.82 0 13 0s13 5.82 13 13-5.82 13-13 13S0 20.18 0 13"/>
        <path fill="#FFF" d="M10.185 9.012c.297 0 .537.24.537.534 0 .296-.24.535-.537.535a.536.536 0 0 1-.537-.535c0-.295.24-.534.537-.534zm0 2.08c.857 0 1.554-.693 1.554-1.546 0-.852-.697-1.546-1.554-1.546-.857 0-1.554.694-1.554 1.546 0 .853.697 1.546 1.554 1.546zm-.82-.028a1.737 1.737 0 0 1-.426-.323l-3.873 5.083c.176.054.34.137.488.24l3.81-5zm6.45 5.872c.297 0 .538.24.538.535 0 .295-.24.534-.537.534a.536.536 0 0 1-.538-.534c0-.296.24-.535.538-.535zm-1.553.518c0 .852.697 1.546 1.554 1.546.856 0 1.553-.694 1.553-1.546 0-.853-.697-1.546-1.553-1.546-.857 0-1.554.693-1.554 1.546zm-9.708-.518a.536.536 0 0 1 0 1.069.536.536 0 0 1-.538-.534c0-.296.241-.535.538-.535zm0 2.064c.856 0 1.553-.694 1.553-1.546 0-.853-.697-1.546-1.554-1.546-.856 0-1.553.693-1.553 1.546C3 18.306 3.697 19 4.553 19zm6.451-7.936l3.81 5c.148-.103.312-.186.489-.24L11.43 10.74a1.736 1.736 0 0 1-.426.323zm10.441-2.052c.297 0 .538.24.538.534 0 .296-.241.535-.538.535a.536.536 0 0 1-.537-.535c0-.295.24-.534.537-.534zm0 2.08c.857 0 1.554-.693 1.554-1.546C23 8.694 22.303 8 21.447 8c-.857 0-1.554.694-1.554 1.546 0 .853.697 1.546 1.554 1.546zm-.82-.028a1.734 1.734 0 0 1-.426-.323l-3.873 5.083c.177.054.34.137.488.24l3.81-5z"/>
    </g>
</svg>
