<?xml version="1.0" encoding="UTF-8"?>
<svg width="86px" height="86px" viewBox="0 0 86 86" version="1.1" xmlns="http://www.w3.org/2000/svg" xmlns:xlink="http://www.w3.org/1999/xlink">
    <!-- Generator: Sketch 48.2 (47327) - http://www.bohemiancoding.com/sketch -->
    <title>Combined Shape</title>
    <desc>Created with Sketch.</desc>
    <defs></defs>
    <g id="Artboard-Copy-4" stroke="none" stroke-width="1" fill="none" fill-rule="evenodd" transform="translate(-8.000000, -7.000000)">
        <path d="M48.6359659,58.6957852 L32.2616522,42.3214715 C30.9248189,40.9846382 28.757384,40.9846382 27.4205507,42.3214715 C26.0837175,43.6583047 26.0837175,45.8257397 27.4205507,47.1625729 L45.9306445,65.6726667 C45.9784425,65.7204647 46.0273024,65.7665537 46.0771481,65.8109337 C46.1215282,65.8607795 46.1676172,65.9096394 46.2154152,65.9574374 C47.5522484,67.2942706 49.7196834,67.2942706 51.0565166,65.9574374 L80.9574374,36.0565166 C82.2942706,34.7196834 82.2942706,32.5522484 80.9574374,31.2154152 C79.6206041,29.8785819 77.4531692,29.8785819 76.1163359,31.2154152 L48.6359659,58.6957852 Z M51,93 C27.2517558,93 8,73.7482442 8,50 C8,26.2517558 27.2517558,7 51,7 C74.7482442,7 94,26.2517558 94,50 C94,73.7482442 74.7482442,93 51,93 Z" id="Combined-Shape" fill="#2CDD00"></path>
    </g>
</svg>